<?xml version="1.0" encoding="UTF-8" standalone="no"?>
<!-- Created with Inkscape (http://www.inkscape.org/) -->

<svg
   xmlns:dc="http://purl.org/dc/elements/1.1/"
   xmlns:cc="http://creativecommons.org/ns#"
   xmlns:rdf="http://www.w3.org/1999/02/22-rdf-syntax-ns#"
   xmlns:svg="http://www.w3.org/2000/svg"
   xmlns="http://www.w3.org/2000/svg"
   xmlns:sodipodi="http://sodipodi.sourceforge.net/DTD/sodipodi-0.dtd"
   xmlns:inkscape="http://www.inkscape.org/namespaces/inkscape"
   version="1.1"
   width="432.10812"
   height="716.98499"
   id="svg2"
   xml:space="preserve"
   inkscape:version="0.48.1 "
   sodipodi:docname="Dynamo_Kiev.svg"><metadata
     id="metadata3257"><rdf:RDF><cc:Work
         rdf:about=""><dc:format>image/svg+xml</dc:format><dc:type
           rdf:resource="http://purl.org/dc/dcmitype/StillImage" /></cc:Work></rdf:RDF></metadata><sodipodi:namedview
     pagecolor="#ffffff"
     bordercolor="#666666"
     borderopacity="1"
     objecttolerance="10"
     gridtolerance="10"
     guidetolerance="10"
     inkscape:pageopacity="0"
     inkscape:pageshadow="2"
     inkscape:window-width="1280"
     inkscape:window-height="972"
     id="namedview3255"
     showgrid="false"
     inkscape:zoom="0.71543943"
     inkscape:cx="371.875"
     inkscape:cy="134.82532"
     inkscape:window-x="-8"
     inkscape:window-y="-8"
     inkscape:window-maximized="1"
     inkscape:current-layer="svg2"
     showguides="true"
     inkscape:guide-bbox="true"
     inkscape:snap-page="true"
     inkscape:snap-grids="false"
     fit-margin-top="0"
     fit-margin-left="0"
     fit-margin-right="0"
     fit-margin-bottom="0" /><defs
     id="defs6"><clipPath
       id="clipPath20"><path
         d="M 0,5735.88 0,0 l 3456.87,0 0,5735.88 -3456.87,0 z"
         id="path22"
         inkscape:connector-curvature="0" /></clipPath></defs><g
     transform="matrix(1.25,0,0,-1.25,0,716.985)"
     id="g12"><g
       transform="scale(0.1,0.1)"
       id="g14"><g
         id="g16"><g
           clip-path="url(#clipPath20)"
           id="g18"><path
             d="M 1728.48,0 C 1677.37,0 1629.4,25.0586 1600.11,67.0703 1339.7,440.531 169.91,2118.02 37.2852,2308.14 c -49.6954,71.23 -49.7149,149.7 -0.0508,220.94 l 417.7386,599.03 c 444.215,637.03 1127.927,1617.47 1146.207,1643.64 28.79,41.28 76.23,65.93 126.9,65.93 50.93,0 98.74,-24.83 127.9,-66.43 21.13,-30.16 1526.45,-2188.59 1563.77,-2242.27 49.53,-71.27 49.49,-149.69 -0.14,-220.8 l -59.18,-84.83 C 2275.04,667.148 1943.68,191.801 1856.82,67.0703 1827.6,25.0586 1779.62,0 1728.48,0 l 0,0"
             id="path24"
             style="fill:#176fc1;fill-opacity:1;fill-rule:evenodd;stroke:none"
             inkscape:connector-curvature="0" /><path
             d="M 3351.65,2355.6 C 3323.54,2315.35 2002.09,420.789 1788.8,114.41 1759.58,72.4492 1697.52,72.25 1668.09,114.469 1463.49,407.871 244.016,2156.64 105.234,2355.56 c -29.3278,42.04 -29.3942,83.99 -0.007,126.13 90.222,129.37 1537.053,2204.15 1563.903,2242.64 28.54,40.9 90.06,40.57 118.97,-0.66 28.9,-41.23 1533.41,-2198.58 1563.6,-2242 29.32,-42.18 29.24,-84.1 -0.05,-126.07"
             id="path26"
             style="fill:#ffffff;fill-opacity:1;fill-rule:evenodd;stroke:none"
             inkscape:connector-curvature="0" /><path
             d="m 1744.07,214.629 c -8.59,-12.34 -22.65,-12.34 -31.26,0 L 191.289,2396.44 c -8.594,12.33 -8.594,32.5 0,44.82 L 1712.81,4623.05 c 8.61,12.33 22.67,12.33 31.26,0 L 3265.59,2441.26 c 8.59,-12.32 8.59,-32.49 0,-44.82 L 1744.07,214.629"
             id="path28"
             style="fill:#1d4692;fill-opacity:1;fill-rule:evenodd;stroke:none"
             inkscape:connector-curvature="0" /><path
             d="m 1734.31,282.891 c -3.23,-4.629 -8.5,-4.629 -11.73,0 L 238.895,2410.44 c -3.231,4.62 -3.231,12.19 0,16.82 L 1722.58,4554.79 c 3.23,4.62 8.5,4.62 11.73,0 L 3217.97,2427.26 c 3.23,-4.63 3.23,-12.2 0,-16.82 L 1734.31,282.891"
             id="path30"
             style="fill:#176fc1;fill-opacity:1;fill-rule:evenodd;stroke:none"
             inkscape:connector-curvature="0" /><path
             d="m 2253.74,1878.53 c -135.2,-162.73 -344.03,-240.55 -557.5,-202.05 201.68,180.89 344.76,565.8 349.47,890.29 -13.65,13.04 -43.5,31.85 -43.5,31.85 0,0 -2.65,-16.81 -12.34,-12.81 -78.13,32.15 -168.14,92.54 -228.59,192.65 -18.4,30.45 -35.63,67.06 -50.32,107.67 118.92,75.11 216.8,175.72 283.87,285.45 185.53,-84.59 321.52,-246.64 386.33,-435.12 111.52,-324.38 39.22,-657.35 -127.42,-857.93 z M 1245.05,1600.34 c -57.15,3.82 -108.57,32.54 -114.4,71.44 -5.48,36.71 23.87,59.23 62.16,58.53 56.01,-1.06 143.86,-64.28 213.33,-97.58 -48.42,-25.74 -113.57,-35.57 -161.09,-32.39 z m 425.43,1633.21 c 23.39,0.95 47.31,0.9 71.87,-0.44 39.98,-2.18 78.64,-7.57 115.87,-15.82 -44.58,-73.62 -102.62,-143.76 -181.76,-202.35 -12.76,70.81 -16.41,146.14 -5.98,218.61 z m 235.97,301.35 c 49.57,-11.86 55.16,-85.81 18.5,-175.86 -19.57,2.32 -39.3,4.26 -59.18,5.7 -55.1,3.98 -108.51,4.83 -160.23,2.89 54.2,136.26 144.25,180.78 200.91,167.27 z m 896.17,-1039.3 c -12.93,431.32 -319.98,734.92 -726.35,835.88 18.27,45.39 34.67,93.15 43.01,133.96 28.79,140.79 -21.93,231.69 -120.29,248.85 -154.58,27.01 -351.93,-110.49 -429.96,-358.7 -390.95,-55.29 -662.05,-279.46 -757.272,-538.89 -93.82,-255.56 -0.11,-471.6 165.246,-536.74 169.176,-66.64 326.146,24.21 372.326,141.56 -9.05,6.6 -43.6,32.03 -43.6,32.03 0,0 -12.73,-15.12 -24.24,-9.29 -95.93,48.64 -166.28,162.13 -154.03,322.07 15.57,203.42 169.49,391.05 412.13,449.28 -11.71,-93.57 -12.08,-187.78 -6.06,-282.06 -34.65,-14.83 -72.06,-27.94 -112.63,-38.92 -6.62,-38.81 -47.37,-99.85 -47.37,-99.85 l 44.39,-26.57 c 43.85,8.69 86.41,20.87 127.42,36.01 27.01,-234.25 79.83,-467.38 83.38,-690.65 2.19,-137.4 -21.09,-292.73 -98.77,-386.88 -125.65,52.17 -215.6,119.43 -306.16,135.12 -127.37,22.07 -231.661,-59.74 -217.36,-180.87 10.45,-88.62 111.64,-169.1 244.09,-177.6 104.35,-6.69 216.97,27.61 293.65,71.71 78.11,-30.7 177.21,-61.98 274.94,-67.7 612.26,-35.89 999.25,462.98 983.51,988.25"
             id="path32"
             style="fill:#1d4692;fill-opacity:1;fill-rule:evenodd;stroke:none"
             inkscape:connector-curvature="0" /><path
             d="m 2210.32,1910.4 c -135.2,-162.75 -344.01,-240.56 -557.49,-202.05 201.66,180.87 344.75,565.8 349.46,890.28 -87.01,23.43 -208.82,86.49 -284.43,211.69 -18.38,30.45 -35.61,67.06 -50.32,107.67 118.93,75.1 216.82,175.72 283.87,285.44 185.53,-84.58 321.54,-246.64 386.33,-435.11 111.52,-324.38 39.22,-657.36 -127.42,-857.92 z M 1201.64,1632.19 c -57.16,3.82 -108.56,32.55 -114.39,71.46 -5.5,36.7 23.85,59.22 62.15,58.51 56.02,-1.05 143.85,-64.27 213.32,-97.56 -48.4,-25.76 -113.55,-35.58 -161.08,-32.41 z m 425.42,1633.22 c 23.4,0.94 47.32,0.89 71.89,-0.44 39.93,-2.18 78.54,-7.56 115.73,-15.78 -44.63,-73.26 -102.73,-142.61 -181.97,-200.55 -12.49,70.28 -15.98,144.93 -5.65,216.77 z m 237.28,303.41 c 50.76,-13.06 62.23,-86.07 22.87,-178.61 -21.42,2.66 -43.05,4.82 -64.86,6.39 -55.07,3.97 -108.49,4.82 -160.2,2.89 54.6,137.31 145.73,183.89 202.19,169.33 z M 2759.2,2527.46 c -12.91,431.24 -319.88,734.8 -726.13,835.82 18.58,46.93 33.67,95.67 40.92,138.81 24.53,145.76 -20.04,226.89 -118.42,244.07 -154.56,26.99 -351.93,-110.51 -429.94,-358.71 -390.96,-55.3 -662.044,-279.47 -757.278,-538.9 C 674.52,2593 768.23,2376.96 933.605,2311.8 c 169.155,-66.63 326.145,24.22 372.315,141.58 -128.02,22.75 -236.86,148.96 -221.87,344.81 15.56,203.41 169.49,391.04 412.13,449.29 -11.6,-92.64 -12.05,-185.9 -6.23,-279.22 -34.61,-14.7 -71.95,-27.71 -112.46,-38.66 -11.15,-65.4 -2.98,-129.53 -2.98,-129.53 43.84,8.7 86.4,20.87 127.43,36.02 27.01,-234.26 79.81,-467.37 83.36,-690.66 2.2,-137.41 -21.09,-292.74 -98.76,-386.89 -125.65,52.18 -215.6,119.43 -306.16,135.13 -127.37,22.06 -231.657,-59.75 -217.36,-180.87 10.449,-88.62 111.64,-169.1 244.09,-177.6 104.35,-6.69 216.97,27.61 293.64,71.71 78.11,-30.7 177.21,-61.97 274.96,-67.7 612.24,-35.89 999.26,462.97 983.49,988.25"
             id="path34"
             style="fill:#ffffff;fill-opacity:1;fill-rule:evenodd;stroke:none"
             inkscape:connector-curvature="0" /><path
             d="m 1541.28,1001.74 -31.69,23.87 -40.44,102.73 -43.28,-51.94 0,-74.66 -38.95,0 -31.6,23.87 31.6,15.56 0,217.35 7.29,23.87 31.66,-23.87 0,-116.66 109.22,133.04 11.68,7.49 31.66,-23.87 -83.31,-100.62 91.96,-156.16 -45.8,0"
             id="path36"
             style="fill:#1d4692;fill-opacity:1;fill-rule:nonzero;stroke:none"
             inkscape:connector-curvature="0" /><path
             d="m 1775.34,1001.74 -31.62,23.84 31.62,162.62 -115.04,-186.46 -35.35,0 -31.67,23.87 31.67,232.91 7.31,23.74 31.64,-23.74 0,-172.72 118.71,196.5 31.68,-23.78 0,-256.78 -38.95,0"
             id="path38"
             style="fill:#1d4692;fill-opacity:1;fill-rule:nonzero;stroke:none"
             inkscape:connector-curvature="0" /><path
             d="m 1931.86,1294.78 -31.44,23.88 35.13,39.2 31.6,-24.13 0,-38.95 -35.29,0 z m -40.74,-293.04 -31.67,23.47 38.8,257.09 31.81,-23.78 0,-256.78 -38.94,0 z m -39.44,293.04 -31.36,23.85 35.07,38.89 31.76,-23.79 0,-38.95 -35.47,0"
             id="path40"
             style="fill:#1d4692;fill-opacity:1;fill-rule:nonzero;stroke:none"
             inkscape:connector-curvature="0" /><path
             d="m 2102.09,1114.99 -60.95,0 0,-78.27 60.95,0 c 25.96,0 42.19,15.15 42.19,39.31 0,23.81 -16.23,38.96 -42.19,38.96 z m -3.26,108.55 -57.69,0 0,-66.22 57.69,0 c 25.98,0 32.31,6.36 32.31,29.43 0,23.08 -6.33,36.79 -32.31,36.79 z m 7.23,-221.8 -103.87,0 -31.68,23.81 31.68,232.97 121.08,7.69 c 0,0 21.64,-14.54 35.17,-26.62 13.52,-12.08 21.19,-29.39 21.19,-50.32 0,-25.96 -11.89,-44.71 -34.63,-55.89 25.26,-11.91 38.6,-30.29 38.6,-59.51 0,-44.35 -29.57,-72.13 -77.54,-72.13"
             id="path42"
             style="fill:#1d4692;fill-opacity:1;fill-rule:nonzero;stroke:none"
             inkscape:connector-curvature="0" /><path
             d="m 1509.6,1025.6 -72.13,126.57 -43.27,-51.92 0,-74.65 -38.95,0 0,256.78 38.95,0 0,-129.11 104.94,129.11 47.61,0 -83.31,-100.63 91.96,-156.15 -45.8,0"
             id="path44"
             style="fill:#ffffff;fill-opacity:1;fill-rule:nonzero;stroke:none"
             inkscape:connector-curvature="0" /><path
             d="m 1743.66,1025.6 0,186.45 -115.04,-186.45 -35.35,0 0,256.78 38.95,0 0,-186.1 114.68,186.1 35.71,0 0,-256.78 -38.95,0"
             id="path46"
             style="fill:#ffffff;fill-opacity:1;fill-rule:nonzero;stroke:none"
             inkscape:connector-curvature="0" /><path
             d="m 1900.18,1318.63 0,38.95 35.2,0 0,-38.95 -35.2,0 z m -40.75,-293.03 0,256.78 38.95,0 0,-256.78 -38.95,0 z m -39.13,293.03 0,38.95 35.17,0 0,-38.95 -35.17,0"
             id="path48"
             style="fill:#ffffff;fill-opacity:1;fill-rule:nonzero;stroke:none"
             inkscape:connector-curvature="0" /><path
             d="m 2070.42,1138.84 -60.94,0 0,-78.26 60.94,0 c 25.97,0 42.2,15.14 42.2,39.31 0,23.81 -16.23,38.95 -42.2,38.95 z m -3.25,108.56 -57.69,0 0,-73.58 57.69,0 c 25.98,0 41.84,13.72 41.84,36.78 0,23.08 -15.86,36.8 -41.84,36.8 z m 7.21,-221.8 -103.87,0 0,256.78 99.91,0 c 46.87,0 77.53,-27.42 77.53,-69.25 0,-25.98 -11.91,-44.73 -34.62,-55.89 25.25,-11.91 38.59,-30.3 38.59,-59.51 0,-44.35 -29.57,-72.13 -77.54,-72.13"
             id="path50"
             style="fill:#ffffff;fill-opacity:1;fill-rule:nonzero;stroke:none"
             inkscape:connector-curvature="0" /><path
             d="m 1605.15,5448.59 c -9.5,0 -161.37,0 -287.6,0 -39.96,123.79 -84.92,263.28 -88.07,273.37 -5.74,18.41 -28.86,18.7 -34.67,0.04 -2.81,-9.07 -49.74,-153.38 -88.77,-273.41 -126.228,0 -278.102,0 -287.61,0 -19.399,0 -25.981,-21.86 -10.664,-32.97 7.593,-5.51 130.425,-94.61 232.714,-168.79 -38.97,-119.92 -85.707,-263.75 -88.632,-272.77 -5.981,-18.44 12.769,-31.45 28.062,-20.33 7.578,5.49 129.69,94.38 231.7,168.63 102.07,-74.3 224.47,-163.4 232.05,-168.9 15.31,-11.13 34.06,1.89 28.07,20.33 -2.93,9.02 -49.73,153.03 -88.69,272.99 102.28,74.18 225.19,163.33 232.77,168.84 15.33,11.11 8.73,32.97 -10.66,32.97"
             id="path52"
             style="fill:#e4ac21;fill-opacity:1;fill-rule:nonzero;stroke:none"
             inkscape:connector-curvature="0" /><path
             d="m 1094.13,5264.36 -191.095,138.55 -95.269,12.71 232.714,-168.79 53.65,17.53"
             id="path54"
             style="fill:#bf851e;fill-opacity:1;fill-rule:nonzero;stroke:none"
             inkscape:connector-curvature="0" /><path
             d="m 1284.29,5402.92 0,0 33.26,45.67 -88.07,273.37 -17.44,-94.93 72.25,-224.11"
             id="path56"
             style="fill:#bf851e;fill-opacity:1;fill-rule:nonzero;stroke:none"
             inkscape:connector-curvature="0" /><path
             d="m 1021.42,5040.44 -41.51,-86.71 231.7,168.63 0.02,56.46 -190.21,-138.38"
             id="path58"
             style="fill:#bf851e;fill-opacity:1;fill-rule:nonzero;stroke:none"
             inkscape:connector-curvature="0" /><path
             d="m 1623.17,5437.22 c -4.55,-1.58 -75,-25.08 -102.67,-34.3 l 0.04,0 -191.17,-138.62 72.79,-224.1 c 22.99,-31.71 63.22,-87.26 63.51,-87.66 5.86,4.17 9.05,12.03 6.06,21.25 -2.93,9.02 -49.73,153.03 -88.69,272.99 102.28,74.18 225.19,163.33 232.77,168.84 8.03,5.81 10.04,14.57 7.36,21.6"
             id="path60"
             style="fill:#bf851e;fill-opacity:1;fill-rule:nonzero;stroke:none"
             inkscape:connector-curvature="0" /><path
             d="m 2638.42,5448.59 c -9.49,0 -161.36,0 -287.59,0 -39.97,123.79 -84.93,263.28 -88.05,273.37 -5.74,18.41 -28.89,18.7 -34.69,0.04 -2.81,-9.07 -49.73,-153.38 -88.75,-273.41 -126.25,0 -278.12,0 -287.63,0 -19.4,0 -25.98,-21.86 -10.65,-32.97 7.58,-5.51 130.43,-94.61 232.71,-168.79 -38.98,-119.92 -85.72,-263.75 -88.63,-272.77 -5.99,-18.44 12.76,-31.45 28.05,-20.33 7.58,5.49 129.69,94.38 231.7,168.63 102.07,-74.3 224.47,-163.4 232.07,-168.9 15.29,-11.13 34.04,1.89 28.04,20.33 -2.92,9.02 -49.72,153.03 -88.69,272.99 102.29,74.18 225.2,163.33 232.78,168.84 15.31,11.11 8.73,32.97 -10.67,32.97"
             id="path62"
             style="fill:#e4ac21;fill-opacity:1;fill-rule:nonzero;stroke:none"
             inkscape:connector-curvature="0" /><path
             d="m 2127.41,5264.36 -191.1,138.55 -95.25,12.71 232.71,-168.79 53.64,17.53"
             id="path64"
             style="fill:#bf851e;fill-opacity:1;fill-rule:nonzero;stroke:none"
             inkscape:connector-curvature="0" /><path
             d="m 2317.56,5402.92 0,0 33.27,45.67 -88.05,273.37 -17.46,-94.93 72.24,-224.11"
             id="path66"
             style="fill:#bf851e;fill-opacity:1;fill-rule:nonzero;stroke:none"
             inkscape:connector-curvature="0" /><path
             d="m 2054.69,5040.44 -41.5,-86.71 231.7,168.63 0.04,56.46 -190.24,-138.38"
             id="path68"
             style="fill:#bf851e;fill-opacity:1;fill-rule:nonzero;stroke:none"
             inkscape:connector-curvature="0" /><path
             d="m 2656.45,5437.22 c -4.55,-1.58 -75,-25.08 -102.66,-34.3 l 0.02,0 -191.15,-138.62 72.79,-224.1 c 22.97,-31.71 63.23,-87.26 63.52,-87.66 5.84,4.17 9.04,12.03 6.03,21.25 -2.92,9.02 -49.72,153.03 -88.69,272.99 102.29,74.18 225.2,163.33 232.78,168.84 8.02,5.81 10.04,14.57 7.36,21.6"
             id="path70"
             style="fill:#bf851e;fill-opacity:1;fill-rule:nonzero;stroke:none"
             inkscape:connector-curvature="0" /></g></g></g></g></svg>